<svg xmlns="http://www.w3.org/2000/svg" viewBox="0 0 378.15 393.07"><g id="Calque_2" data-name="Calque 2"><g id="Calque_1-2" data-name="Calque 1"><path d="M341.94,393.07a23.72,23.72,0,0,1-17.65-7.89L288,344.58l-.3.2a187,187,0,0,1-155.17,21,34.33,34.33,0,0,1-.68-67.43,120.45,120.45,0,0,0,18.88,7.8c.18.06,18.13,5.67,37.18,5.67A123.92,123.92,0,1,0,64,187.92a126.79,126.79,0,0,0,1,15.85V328.22l-1-.87v41.38a23.69,23.69,0,0,1-23.66,23.65H24.5A23.69,23.69,0,0,1,.83,368.73v-196a23.67,23.67,0,0,1,1.35-7.87C13.5,71.33,93.12.83,187.42.83,290.3.83,374,84.53,374,187.42a184.82,184.82,0,0,1-38.5,113.5l-.21.28,36.84,41.22a23.66,23.66,0,0,1-1.88,33.41l-12.56,11.23a23.59,23.59,0,0,1-15.75,6Z" transform="translate(-0.42 -0.42)"/><path d="M187.42,1.25A186.09,186.09,0,0,1,335.17,300.67l-.43.55.46.51,36.62,41A23.25,23.25,0,0,1,370,375.52l-12.56,11.23a23.23,23.23,0,0,1-32.81-1.85l-36-40.33-.47-.53-.6.38a186.58,186.58,0,0,1-154.83,21h-.09a34.25,34.25,0,0,1-27.82-32.47A33.78,33.78,0,0,1,112.18,311a34.34,34.34,0,0,1,19.62-12.16,121,121,0,0,0,18.82,7.77,138.76,138.76,0,0,0,37.3,5.69A124.34,124.34,0,1,0,63.58,187.92a126.79,126.79,0,0,0,1,15.85V327.3l-1-.88v42.31A23.26,23.26,0,0,1,40.34,392H24.5A23.27,23.27,0,0,1,1.25,368.73v-196A23.49,23.49,0,0,1,2.57,165l0-.08,0-.09C13.89,71.59,93.33,1.25,187.42,1.25m0-.83C91.82.42,13,72.17,1.79,164.76a24.1,24.1,0,0,0-1.37,8v196A24.08,24.08,0,0,0,24.5,392.8H40.34a24.08,24.08,0,0,0,24.08-24.07V328.27c.33.29.66.58,1,.86V203.72a124.81,124.81,0,0,1-1-15.8,123.5,123.5,0,1,1,123.5,123.5c-19.21,0-37-5.65-37-5.65a120.94,120.94,0,0,1-19-7.85,34.75,34.75,0,0,0,.5,68.27,188.34,188.34,0,0,0,55,8.23,186.14,186.14,0,0,0,100.52-29.29l36,40.33a24.08,24.08,0,0,0,34,1.91l12.56-11.23a24.07,24.07,0,0,0,1.91-34l-36.61-41a186.16,186.16,0,0,0,38.59-113.76c0-103.28-83.72-187-187-187Z" transform="translate(-0.42 -0.42)"/></g></g></svg>