<svg xmlns="http://www.w3.org/2000/svg" viewBox="0 0 378.15 393.07"><defs><style>.cls-1{fill:#d2ff52;}</style></defs><g id="Calque_2" data-name="Calque 2"><g id="Calque_1-2" data-name="Calque 1"><path class="cls-1" d="M372,341.73l-36.61-41A186.16,186.16,0,0,0,374,187C374,83.72,290.28,0,187,0,91.4,0,12.56,71.75,1.37,164.34a24.1,24.1,0,0,0-1.37,8v196a24.08,24.08,0,0,0,24.08,24.07H39.92A24.08,24.08,0,0,0,64,368.31V327.85c.33.29.66.58,1,.86V203.3a124.81,124.81,0,0,1-1-15.8A123.5,123.5,0,1,1,187.5,311c-19.2,0-37.05-5.65-37.05-5.65a119.44,119.44,0,0,1-18.95-7.85,34.75,34.75,0,0,0,.5,68.27,187.39,187.39,0,0,0,155.52-21.06l36,40.33a24.07,24.07,0,0,0,34,1.91l12.56-11.23A24.07,24.07,0,0,0,372,341.73Z"/></g></g></svg>